<svg xmlns="http://www.w3.org/2000/svg" viewBox="0 0 512 512" width="512" height="512"><rect width="512" height="512" fill="white"></rect><circle cx="256" cy="256" r="248" fill="#E97420"></circle><circle cx="256" cy="256" r="236" fill="none" stroke="white" stroke-width="6" opacity="0.2"></circle><text x="256" y="330" text-anchor="middle" font-family="Georgia, 'Times New Roman', serif" font-size="320" font-weight="700" fill="white">A</text><path d="M330 115 Q380 60 420 85 Q430 110 400 138 Q370 155 330 115Z" fill="#4CAF50"></path><path d="M333 118 Q375 90 415 88" fill="none" stroke="#2E7D32" stroke-width="4" stroke-linecap="round"></path><path d="M355 112 Q368 100 382 97" fill="none" stroke="#2E7D32" stroke-width="2.5" stroke-linecap="round"></path><path d="M330 115 Q318 128 312 148" fill="none" stroke="#2E7D32" stroke-width="4" stroke-linecap="round"></path><path d="M312 148 Q295 130 290 108 Q305 100 322 118 Q320 132 312 148Z" fill="#66BB6A"></path><path d="M312 148 Q304 130 292 112" fill="none" stroke="#2E7D32" stroke-width="2" stroke-linecap="round"></path></svg>